PathFileType	4	(X/Y/Z)	/Users/itak/Documents/Research/Walk-IL/dataset/trc/00049_00006.trc
DataRate	CameraRate	NumFrames	NumMarkers	Units	OrigDataRate	OrigDataStartFrame	OrigNumFrames
100.000000	100.000000	4	53	mm	100.000000	187	499
Frame#	Time	RPSI			LPSI			L3			STRN			T10			C7			CLAV			RBAK			LBAK			LSHO			LUPA			LAEL			LAOL			LWTS			LWPS			LFRA			LIFD			LHPS			LHTS			RSHO			RUPA			RAEL			RAOL			RWTS			RWPS			RFRA			RIFD			RHTS			RHPS			RBHD			LFHD			RFHD			LBHD			LHIP			RHIP			RASI			LASI			LKNE			LTHI			LANK			LTIP			LTOE			LMT1			LMT5			LHEE			RKNE			RTHI			RANK			RTIP			RTOE			RMT1			RMT5			RHEE			
		X1	Y1	Z1	X2	Y2	Z2	X3	Y3	Z3	X4	Y4	Z4	X5	Y5	Z5	X6	Y6	Z6	X7	Y7	Z7	X8	Y8	Z8	X9	Y9	Z9	X10	Y10	Z10	X11	Y11	Z11	X12	Y12	Z12	X13	Y13	Z13	X14	Y14	Z14	X15	Y15	Z15	X16	Y16	Z16	X17	Y17	Z17	X18	Y18	Z18	X19	Y19	Z19	X20	Y20	Z20	X21	Y21	Z21	X22	Y22	Z22	X23	Y23	Z23	X24	Y24	Z24	X25	Y25	Z25	X26	Y26	Z26	X27	Y27	Z27	X28	Y28	Z28	X29	Y29	Z29	X30	Y30	Z30	X31	Y31	Z31	X32	Y32	Z32	X33	Y33	Z33	X34	Y34	Z34	X35	Y35	Z35	X36	Y36	Z36	X37	Y37	Z37	X38	Y38	Z38	X39	Y39	Z39	X40	Y40	Z40	X41	Y41	Z41	X42	Y42	Z42	X43	Y43	Z43	X44	Y44	Z44	X45	Y45	Z45	X46	Y46	Z46	X47	Y47	Z47	X48	Y48	Z48	X49	Y49	Z49	X50	Y50	Z50	X51	Y51	Z51	X52	Y52	Z52	X53	Y53	Z53	

188	1.87	727.3119506835938	1011.869689941406	-184.8584594726562	706.7948608398438	994.548828125	-356.4802856445312	724.3812255859375	1073.251220703125	-282.8615112304688	992.7071533203125	1241.169555664062	-298.6292114257812	721.8733520507812	1204.016235351562	-298.0686645507812	804.4661865234375	1464.514038085938	-308.3207092285156	973.0676879882812	1357.826416015625	-303.1998291015625	724.6295166015625	1335.66943359375	-230.1255493164062	779.0054321289062	1426.8427734375	-408.4826354980469	883.5933837890625	1418.992065429688	-480.0323486328125	855.5841064453125	1291.794067382812	-554.365478515625	858.650390625	1074.730834960938	-567.9722900390625	793.9910888671875	1067.81640625	-484.37451171875	935.6934204101562	835.2066040039062	-490.3590393066406	878.5158081054688	823.7194213867188	-551.406494140625	873.0767822265625	964.4422607421875	-569.87646484375	943.6028442382812	649.1737060546875	-460.3056030273438	907.9258422851562	742.2379150390625	-542.479736328125	954.4412231445312	752.1402587890625	-488.9536437988281	864.2529296875	1424.116455078125	-130.3785095214844	843.0916748046875	1358.380126953125	-67.30313110351562	777.8667602539062	1102.7041015625	-29.49009895324707	800.0927124023438	1073.945922851562	-122.0644302368164	904.3054809570312	840.8607788085938	-47.64443969726562	825.4036865234375	828.1774291992188	-12.42593765258789	781.9555053710938	1020.271789550781	-18.782958984375	904.5045166015625	656.4474487304688	-75.83905792236328	924.692626953125	738.4794311523438	-45.49364852905273	858.1282348632812	736.0856323242188	-5.871111869812012	849.4052734375	1632.615112304688	-366.4137878417969	1009.273498535156	1661.577758789062	-223.2971954345703	1022.765502929688	1673.5810546875	-348.0892028808594	844.2255859375	1612.9814453125	-230.2391357421875	799.9789428710938	924.3645629882812	-454.4713439941406	802.0668334960938	942.066650390625	-108.5356826782227	921.3170776367188	957.7452392578125	-141.6178436279297	915.5823974609375	930.5293579101562	-408.1083068847656	867.5518798828125	455.9309692382812	-385.9808959960938	841.4186401367188	599.128173828125	-428.6421813964844	595.5877685546875	58.80663681030273	-399.3092651367188	718.8164672851562	244.2182312011719	-406.4801330566406	792.0660400390625	35.92656707763672	-392.9230346679688	747.4769287109375	36.11780548095703	-339.6144409179688	694.3679809570312	32.61203384399414	-439.6644592285156	543.4758911132812	73.14211273193359	-323.0021667480469	991.66552734375	518.2709350585938	-140.0555114746094	919.3846435546875	778.2571411132812	-104.8870010375977	984.0154418945312	35.02096939086914	-151.3314361572266	998.0425415039062	391.2153930664062	-133.9090576171875	1200.663818359375	25.9741382598877	-185.3094635009766	1141.5244140625	35.57147598266602	-225.5380554199219	1108.44189453125	33.20859909057617	-132.5569305419922	939.0537109375	38.36820220947266	-207.9707946777344	
189	1.88	719.154052734375	1012.049438476562	-186.3158416748047	698.4962158203125	994.6831665039062	-357.9409484863281	716.28125	1073.508911132812	-284.5451965332031	985.5856323242188	1240.5302734375	-300.297119140625	714.6012573242188	1204.108642578125	-300.1810913085938	797.9556274414062	1464.360107421875	-310.3477783203125	966.3533325195312	1357.2822265625	-304.84521484375	717.6267700195312	1335.76708984375	-232.4061126708984	772.7847290039062	1426.7587890625	-410.7434692382812	877.5354614257812	1418.694702148438	-481.8661804199219	850.2760009765625	1291.280883789062	-556.2570190429688	854.6324462890625	1074.149047851562	-569.2860107421875	789.2642211914062	1067.065673828125	-486.1919555664062	932.26416015625	835.12841796875	-490.8227844238281	875.5526733398438	823.2861938476562	-552.22265625	869.58349609375	963.9476928710938	-570.90673828125	940.5301513671875	649.2027587890625	-460.5660705566406	905.3712158203125	741.990478515625	-543.09130859375	951.4453125	752.1561889648438	-489.2455749511719	857.0631713867188	1423.768310546875	-132.4273681640625	835.6796875	1358.017944335938	-69.40573120117188	769.9066162109375	1102.54052734375	-31.59280967712402	792.4265747070312	1073.59033203125	-124.0809326171875	896.0712280273438	840.5009155273438	-48.88525390625	817.22216796875	828.1075439453125	-13.44809150695801	773.8831787109375	1020.148315429688	-20.67139434814453	895.8399658203125	655.964111328125	-76.32065582275391	916.2816162109375	738.0880737304688	-46.41143798828125	849.8763427734375	735.9928588867188	-6.546247005462646	843.2164306640625	1632.35205078125	-367.7472839355469	1003.090270996094	1660.995971679688	-224.5744781494141	1016.6142578125	1673.172607421875	-349.365478515625	837.9217529296875	1612.502075195312	-231.5780487060547	791.8388671875	923.9854125976562	-455.5601806640625	793.3992919921875	942.3641967773438	-109.6972579956055	913.0562744140625	957.776611328125	-142.8452758789062	907.36328125	929.8613891601562	-409.18505859375	860.3136596679688	456.0337829589844	-385.9493103027344	832.6997680664062	599.0410766601562	-429.2556762695312	594.4923095703125	55.75971603393555	-397.7907104492188	714.9983520507812	242.2592163085938	-405.6639709472656	792.155517578125	35.92542266845703	-393.1468811035156	747.4968872070312	35.77934646606445	-339.3569641113281	693.8636474609375	32.26568603515625	-439.2003479003906	542.4369506835938	68.45106506347656	-321.1578979492188	984.2208862304688	518.8317260742188	-139.459228515625	911.0285034179688	778.663330078125	-105.2335586547852	984.3713989257812	35.15033340454102	-150.2308349609375	991.966064453125	392.3247375488281	-132.9263610839844	1200.661865234375	26.63504409790039	-185.5032196044922	1141.487182617188	36.84822845458984	-224.9840698242188	1108.934936523438	33.18986129760742	-131.9639282226562	939.2015380859375	39.03633117675781	-206.7132263183594	
190	1.89	710.8397216796875	1012.317932128906	-187.8382110595703	690.166259765625	994.9287109375	-359.4952697753906	708.0703125	1073.861694335938	-286.2657165527344	978.4102172851562	1240.01025390625	-301.8847351074219	707.2865600585938	1204.323364257812	-302.2709350585938	791.389404296875	1464.305297851562	-312.3408813476562	959.5748291015625	1356.850219726562	-306.4146728515625	710.5601196289062	1335.974975585938	-234.6584930419922	766.5377807617188	1426.78515625	-412.9679260253906	871.4638671875	1418.529418945312	-483.6408081054688	844.95166015625	1290.944213867188	-558.1099853515625	850.537109375	1073.75634765625	-570.611572265625	784.4808959960938	1066.488647460938	-488.0227355957031	928.8171997070312	835.2603149414062	-491.2902526855469	872.5760498046875	823.0498657226562	-553.0259399414062	866.0304565429688	963.6392211914062	-571.9481201171875	937.4557495117188	649.4513549804688	-460.8069458007812	902.811279296875	741.93994140625	-543.6702270507812	948.4548950195312	752.3938598632812	-489.5198669433594	849.7958374023438	1423.552490234375	-134.4322509765625	828.1812133789062	1357.796508789062	-71.45911407470703	761.9242553710938	1102.50146484375	-33.65245819091797	784.6970825195312	1073.363159179688	-126.0719909667969	887.81689453125	840.2716064453125	-50.20854568481445	809.087890625	828.1765747070312	-14.41364479064941	765.8084106445312	1020.147766113281	-22.5100212097168	887.081787109375	655.6083374023438	-76.87792205810547	907.85595703125	737.8298950195312	-47.43536376953125	841.6913452148438	736.0405883789062	-7.200175762176514	836.9551391601562	1632.1787109375	-369.0707397460938	996.831787109375	1660.536865234375	-225.8492431640625	1010.386108398438	1672.864501953125	-350.6335754394531	831.5491333007812	1612.128173828125	-232.9074096679688	783.7560424804688	923.7730712890625	-456.6692810058594	784.423583984375	942.7276000976562	-110.8717727661133	904.5899658203125	957.860595703125	-143.9638519287109	899.159423828125	929.3221435546875	-410.1394958496094	853.5494995117188	456.2620849609375	-386.1484069824219	824.6049194335938	599.0374145507812	-429.9810180664062	593.5745849609375	53.1239128112793	-396.53759765625	711.5537719726562	240.5706176757812	-405.0476684570312	792.2628173828125	35.88905715942383	-393.3304443359375	747.5136108398438	35.55110168457031	-339.1188354492188	693.4368896484375	32.00320053100586	-438.7785034179688	541.5791625976562	64.30133819580078	-319.6396789550781	976.5569458007812	519.4443359375	-138.6825256347656	902.39208984375	779.115234375	-105.415283203125	984.592041015625	35.26919937133789	-148.7978515625	985.6966552734375	393.5068359375	-131.7962951660156	1200.380859375	27.73448753356934	-185.8650360107422	1141.018310546875	38.48997497558594	-224.4511871337891	1109.315795898438	33.34521102905273	-131.3890075683594	939.0301513671875	39.70052719116211	-205.0196990966797	
191	1.9	702.4168701171875	1012.652587890625	-189.4161682128906	681.8743286132812	995.2573852539062	-361.1290283203125	699.7919921875	1074.288696289062	-288.0128173828125	971.1966552734375	1239.617309570312	-303.3703308105469	699.9340209960938	1204.643920898438	-304.3229675292969	784.7686157226562	1464.346313476562	-314.279296875	952.7380981445312	1356.535888671875	-307.8875732421875	703.4393920898438	1336.278564453125	-236.8599853515625	760.2601318359375	1426.909790039062	-415.13037109375	865.375732421875	1418.490844726562	-485.3348083496094	839.6016845703125	1290.783447265625	-559.909423828125	846.34228515625	1073.5498046875	-571.9537963867188	779.6304321289062	1066.080078125	-489.8660583496094	925.3400268554688	835.6028442382812	-491.762939453125	869.5690307617188	823.0067138671875	-553.8150024414062	862.3964233398438	963.5128784179688	-573.0047607421875	934.3712158203125	649.9207153320312	-461.0251159667969	900.2281494140625	742.0838623046875	-544.209716796875	945.4571533203125	752.8544921875	-489.7747497558594	842.4633178710938	1423.46533203125	-136.3666839599609	820.6097412109375	1357.712646484375	-73.43741607666016	753.9309692382812	1102.58056640625	-35.64520263671875	776.9356079101562	1073.255493164062	-128.0130462646484	879.5581665039062	840.1671752929688	-51.57799530029297	801.001953125	828.3719482421875	-15.32446575164795	757.741943359375	1020.263244628906	-24.28115653991699	878.2506103515625	655.37841796875	-77.51573944091797	899.4276123046875	737.6969604492188	-48.5377197265625	833.5594482421875	736.21337890625	-7.843512535095215	830.62109375	1632.096313476562	-370.3721618652344	990.503173828125	1660.201049804688	-227.1143341064453	1004.080383300781	1672.651489257812	-351.8858032226562	825.1192626953125	1611.867553710938	-234.2146911621094	775.7843627929688	923.711669921875	-457.8000793457031	775.2503662109375	943.1365356445312	-112.0619506835938	895.9725952148438	958.001953125	-144.9651489257812	891.021484375	928.9244384765625	-410.97314453125	847.261474609375	456.6091003417969	-386.5306091308594	817.1470947265625	599.1154174804688	-430.7871704101562	592.8071899414062	50.88962936401367	-395.5518188476562	708.465576171875	239.1416778564453	-404.6093139648438	792.3606567382812	35.83694076538086	-393.4683227539062	747.5042724609375	35.4002685546875	-338.8964233398438	693.0797729492188	31.79843139648438	-438.3988037109375	540.8588256835938	60.68952941894531	-318.450927734375	968.7855224609375	520.1170654296875	-137.7456665039062	893.5530395507812	779.6119995117188	-105.432731628418	984.5166625976562	35.36693954467773	-146.9931488037109	979.2969970703125	394.7506103515625	-130.5452270507812	1199.651245117188	29.36222076416016	-186.4039459228516	1139.916870117188	40.51195907592773	-223.9454956054688	1109.424682617188	33.72924423217773	-130.8252716064453	938.3599243164062	40.30792236328125	-202.8347625732422	
